<?xml version="1.0" encoding="UTF-8" standalone="no"?>
<!-- Created with Inkscape (http://www.inkscape.org/) -->

<svg
   width="120"
   height="120"
   viewBox="0 0 120 120"
   version="1.1"
   id="svg5"
   inkscape:version="1.2.1 (9c6d41e410, 2022-07-14)"
   sodipodi:docname="MACLogo.svg"
   inkscape:export-filename="MACLogo.png"
   inkscape:export-xdpi="96"
   inkscape:export-ydpi="96"
   xmlns:inkscape="http://www.inkscape.org/namespaces/inkscape"
   xmlns:sodipodi="http://sodipodi.sourceforge.net/DTD/sodipodi-0.dtd"
   xmlns:xlink="http://www.w3.org/1999/xlink"
   xmlns="http://www.w3.org/2000/svg"
   xmlns:svg="http://www.w3.org/2000/svg">
  <sodipodi:namedview
     id="namedview7"
     pagecolor="#ffffff"
     bordercolor="#000000"
     borderopacity="0.25"
     inkscape:showpageshadow="2"
     inkscape:pageopacity="0.0"
     inkscape:pagecheckerboard="0"
     inkscape:deskcolor="#d1d1d1"
     inkscape:document-units="px"
     showgrid="false"
     inkscape:zoom="8"
     inkscape:cx="51.9375"
     inkscape:cy="58.3125"
     inkscape:window-width="1920"
     inkscape:window-height="1001"
     inkscape:window-x="-9"
     inkscape:window-y="-9"
     inkscape:window-maximized="1"
     inkscape:current-layer="layer1" />
  <defs
     id="defs2">
    <linearGradient
       inkscape:collect="always"
       id="linearGradient20765">
      <stop
         style="stop-color:#262626;stop-opacity:1;"
         offset="0"
         id="stop20763" />
      <stop
         style="stop-color:#555454;stop-opacity:1;"
         offset="0.46567163"
         id="stop20761" />
    </linearGradient>
    <linearGradient
       inkscape:collect="always"
       id="linearGradient16350">
      <stop
         style="stop-color:#000000;stop-opacity:1;"
         offset="0.16"
         id="stop16348" />
      <stop
         style="stop-color:#8d8c8c;stop-opacity:1;"
         offset="0.5"
         id="stop16346" />
    </linearGradient>
    <linearGradient
       inkscape:collect="always"
       id="linearGradient16342">
      <stop
         style="stop-color:#8d8c8c;stop-opacity:1;"
         offset="0.53432834"
         id="stop16338" />
      <stop
         style="stop-color:#000000;stop-opacity:1;"
         offset="1"
         id="stop16340" />
    </linearGradient>
    <inkscape:path-effect
       effect="lattice2"
       gridpoint0="74.304645,33.992397"
       gridpoint1="100.61474,33.992397"
       gridpoint2="74.304645,93.953223"
       gridpoint3="100.82766,97.485003"
       gridpoint4="80.882169,33.992397"
       gridpoint5="94.037216,33.992397"
       gridpoint6="80.882169,93.953223"
       gridpoint7="93.18552,103.61915"
       gridpoint8x9="87.459693,33.992397"
       gridpoint10x11="87.459693,93.953223"
       gridpoint12="74.304645,48.982603"
       gridpoint13="101.78582,49.075545"
       gridpoint14="74.304645,78.963016"
       gridpoint15="101.46644,84.260686"
       gridpoint16="80.882169,48.982603"
       gridpoint17="94.037216,48.982603"
       gridpoint18="80.882169,78.963016"
       gridpoint19="94.037216,78.963016"
       gridpoint20x21="87.459693,48.982603"
       gridpoint22x23="87.459693,78.963016"
       gridpoint24x26="74.304645,63.97281"
       gridpoint25x27="109.45109,63.97281"
       gridpoint28x30="80.882169,63.97281"
       gridpoint29x31="94.037216,63.97281"
       gridpoint32x33x34x35="87.459693,63.97281"
       id="path-effect16265"
       is_visible="true"
       lpeversion="1"
       horizontal_mirror="false"
       vertical_mirror="false"
       perimetral="false"
       live_update="true" />
    <inkscape:path-effect
       effect="spiro"
       id="path-effect16207"
       is_visible="true"
       lpeversion="1" />
    <inkscape:path-effect
       effect="lattice2"
       gridpoint0="62.596114,38.515889"
       gridpoint1="86.989524,38.515889"
       gridpoint2="61.241074,95.750971"
       gridpoint3="86.989524,82.081291"
       gridpoint4="68.694466,38.515889"
       gridpoint5="80.891171,38.515889"
       gridpoint6="69.146146,90.361962"
       gridpoint7="80.891171,82.081291"
       gridpoint8x9="74.792819,38.515889"
       gridpoint10x11="75.395059,92.727869"
       gridpoint12="62.596114,49.40724"
       gridpoint13="86.989524,49.40724"
       gridpoint14="60.638833,76.578949"
       gridpoint15="86.989524,71.189941"
       gridpoint16="68.694466,49.40724"
       gridpoint17="80.891171,49.40724"
       gridpoint18="68.694466,78.15622"
       gridpoint19="80.891171,71.189941"
       gridpoint20x21="74.792819,49.40724"
       gridpoint22x23="74.943379,76.184631"
       gridpoint24x26="62.596114,60.29859"
       gridpoint25x27="86.989524,60.29859"
       gridpoint28x30="68.694466,60.29859"
       gridpoint29x31="80.891171,60.29859"
       gridpoint32x33x34x35="74.792819,60.29859"
       id="path-effect15984"
       is_visible="true"
       lpeversion="1"
       horizontal_mirror="false"
       vertical_mirror="false"
       perimetral="false"
       live_update="true" />
    <inkscape:path-effect
       effect="lattice2"
       gridpoint0="62.9155,47.995929"
       gridpoint1="86.832146,47.995929"
       gridpoint2="62.9155,77.527154"
       gridpoint3="86.832146,77.527154"
       gridpoint4="68.894661,47.995929"
       gridpoint5="80.852984,47.995929"
       gridpoint6="68.894661,77.527154"
       gridpoint7="80.852984,77.527154"
       gridpoint8x9="74.873823,47.995929"
       gridpoint10x11="74.873823,77.527154"
       gridpoint12="62.9155,55.378735"
       gridpoint13="86.832146,55.378735"
       gridpoint14="62.9155,70.144348"
       gridpoint15="86.832146,70.144348"
       gridpoint16="68.894661,55.378735"
       gridpoint17="80.852984,55.378735"
       gridpoint18="68.894661,70.144348"
       gridpoint19="80.852984,70.144348"
       gridpoint20x21="74.873823,55.378735"
       gridpoint22x23="74.873823,70.144348"
       gridpoint24x26="62.9155,62.761541"
       gridpoint25x27="86.832146,62.761541"
       gridpoint28x30="68.894661,62.761541"
       gridpoint29x31="80.852984,62.761541"
       gridpoint32x33x34x35="74.873823,62.761541"
       id="path-effect15924"
       is_visible="true"
       lpeversion="1"
       horizontal_mirror="false"
       vertical_mirror="false"
       perimetral="false"
       live_update="true" />
    <inkscape:path-effect
       effect="lattice2"
       gridpoint0="34.238945,49.449053"
       gridpoint1="63.150378,49.449053"
       gridpoint2="34.238945,109.71439"
       gridpoint3="64.214998,110.36498"
       gridpoint4="41.466803,49.449053"
       gridpoint5="55.92252,49.449053"
       gridpoint6="41.253879,75.140128"
       gridpoint7="55.47084,81.987045"
       gridpoint8x9="50.18513,19.986575"
       gridpoint10x11="48.694662,77.64955"
       gridpoint12="34.238945,56.499177"
       gridpoint13="63.150378,56.499177"
       gridpoint14="34.238945,70.599426"
       gridpoint15="63.150378,70.599426"
       gridpoint16="41.466803,56.499177"
       gridpoint17="55.92252,56.499177"
       gridpoint18="41.466803,70.599426"
       gridpoint19="55.92252,70.599426"
       gridpoint20x21="48.694662,56.499177"
       gridpoint22x23="48.694662,70.599426"
       gridpoint24x26="34.238945,63.549301"
       gridpoint25x27="63.150378,63.549301"
       gridpoint28x30="41.466803,63.549301"
       gridpoint29x31="55.92252,63.549301"
       gridpoint32x33x34x35="48.694662,63.549301"
       id="path-effect15922"
       is_visible="true"
       lpeversion="1"
       horizontal_mirror="false"
       vertical_mirror="false"
       perimetral="false"
       live_update="true" />
    <inkscape:path-effect
       effect="lattice2"
       gridpoint0="3.0375923,47.140187"
       gridpoint1="40.609676,19.924254"
       gridpoint2="4.2634727,77.089655"
       gridpoint3="35.818884,112.31451"
       gridpoint4="18.380354,42.787881"
       gridpoint5="27.450952,49.107907"
       gridpoint6="11.992633,77.089655"
       gridpoint7="27.450952,77.089655"
       gridpoint8x9="19.721792,49.107907"
       gridpoint10x11="19.721792,77.089655"
       gridpoint12="-1.4565112,55.250924"
       gridpoint13="35.180112,56.103344"
       gridpoint14="4.2634727,70.094218"
       gridpoint15="35.180112,70.094218"
       gridpoint16="6.0455105,55.577588"
       gridpoint17="27.450952,56.103344"
       gridpoint18="11.992633,70.094218"
       gridpoint19="27.450952,70.094218"
       gridpoint20x21="19.721792,56.103344"
       gridpoint22x23="19.721792,70.094218"
       gridpoint24x26="3.3988604,63.257443"
       gridpoint25x27="35.180112,63.098781"
       gridpoint28x30="11.616232,63.23022"
       gridpoint29x31="27.450952,63.098781"
       gridpoint32x33x34x35="19.721792,63.098781"
       id="path-effect15920"
       is_visible="true"
       lpeversion="1"
       horizontal_mirror="false"
       vertical_mirror="false"
       perimetral="false"
       live_update="true" />
    <inkscape:path-effect
       effect="lattice2"
       gridpoint0="4.4232709,47.503609"
       gridpoint1="35.180112,49.107907"
       gridpoint2="4.2634727,77.089655"
       gridpoint3="35.180112,77.089655"
       gridpoint4="11.832834,48.340634"
       gridpoint5="27.450952,49.107907"
       gridpoint6="11.992633,77.089655"
       gridpoint7="27.450952,77.089655"
       gridpoint8x9="19.721792,49.107907"
       gridpoint10x11="19.721792,77.089655"
       gridpoint12="3.1448853,51.987972"
       gridpoint13="35.180112,56.103344"
       gridpoint14="4.2634727,70.094218"
       gridpoint15="35.180112,70.094218"
       gridpoint16="11.992633,56.103344"
       gridpoint17="27.450952,56.103344"
       gridpoint18="11.992633,70.094218"
       gridpoint19="27.450952,70.094218"
       gridpoint20x21="19.721792,56.103344"
       gridpoint22x23="19.721792,70.094218"
       gridpoint24x26="0.90771064,61.075971"
       gridpoint25x27="35.180112,63.098781"
       gridpoint28x30="11.992633,63.098781"
       gridpoint29x31="27.450952,63.098781"
       gridpoint32x33x34x35="19.721792,63.098781"
       id="path-effect15918"
       is_visible="true"
       lpeversion="1"
       horizontal_mirror="false"
       vertical_mirror="false"
       perimetral="false"
       live_update="true" />
    <inkscape:path-effect
       effect="lattice2"
       gridpoint0="4.2634727,47.995929"
       gridpoint1="115.06025,47.995929"
       gridpoint2="4.2634727,77.654758"
       gridpoint3="115.06025,77.654758"
       gridpoint4="31.962667,47.995929"
       gridpoint5="87.361056,47.995929"
       gridpoint6="31.962667,77.654758"
       gridpoint7="87.361056,77.654758"
       gridpoint8x9="59.661861,47.995929"
       gridpoint10x11="59.661861,77.654758"
       gridpoint12="4.2634727,55.410636"
       gridpoint13="115.06025,55.410636"
       gridpoint14="4.2634727,70.240051"
       gridpoint15="115.06025,70.240051"
       gridpoint16="31.962667,55.410636"
       gridpoint17="87.361056,55.410636"
       gridpoint18="31.962667,70.240051"
       gridpoint19="87.361056,70.240051"
       gridpoint20x21="59.661861,55.410636"
       gridpoint22x23="59.661861,70.240051"
       gridpoint24x26="4.2634727,62.825343"
       gridpoint25x27="115.06025,62.825343"
       gridpoint28x30="31.962667,62.825343"
       gridpoint29x31="87.361056,62.825343"
       gridpoint32x33x34x35="59.661861,62.825343"
       id="path-effect15913"
       is_visible="true"
       lpeversion="1"
       horizontal_mirror="false"
       vertical_mirror="false"
       perimetral="false"
       live_update="true" />
    <inkscape:path-effect
       effect="interpolate_points"
       id="path-effect15909"
       is_visible="true"
       lpeversion="1"
       interpolator_type="CentripetalCatmullRom" />
    <inkscape:path-effect
       effect="ellipse_5pts"
       id="path-effect15907"
       is_visible="true"
       lpeversion="1" />
    <linearGradient
       inkscape:collect="always"
       xlink:href="#linearGradient16342"
       id="linearGradient16344"
       x1="0.825"
       y1="57.201059"
       x2="18.047485"
       y2="57.201059"
       gradientUnits="userSpaceOnUse" />
    <linearGradient
       inkscape:collect="always"
       xlink:href="#linearGradient16350"
       id="linearGradient16352"
       x1="101.80431"
       y1="57.201059"
       x2="119.02679"
       y2="57.201059"
       gradientUnits="userSpaceOnUse" />
    <linearGradient
       inkscape:collect="always"
       xlink:href="#linearGradient20765"
       id="linearGradient20767"
       x1="15.243172"
       y1="57.533192"
       x2="105.24317"
       y2="57.533192"
       gradientUnits="userSpaceOnUse"
       gradientTransform="translate(22.917716,-62.38856)" />
  </defs>
  <g
     inkscape:label="Layer 1"
     inkscape:groupmode="layer"
     id="layer1"
     style="display:inline">
    <path
       id="path1029"
       style="display:inline;fill:url(#linearGradient16344);stroke:none;stroke-width:0.669894;fill-opacity:1"
       d="m 16.925926,42.030002 c -0.260061,0.0063 -0.512364,0.08793 -0.691626,0.219937 -0.898538,2.039657 -3.214162,6.018075 -9.5473106,7.850616 -6.22093622,1.800068 -5.87999282,6.850903 -5.84938632,7.032705 -0.029428,0.174285 -0.3763399,5.367498 5.84938632,7.168953 6.3331486,1.832539 8.6487726,5.810958 9.5473106,7.850615 0.573637,0.422408 1.899248,0.323091 1.808777,-1.078263 C 17.952597,69.673212 15.52567,68.258681 14.06233,67.194245 11.357189,65.226513 9.5062759,64.181827 5.3444921,62.672678 2.7828892,61.344631 2.8751965,58.763519 3.1041568,56.333514 3.3696805,53.515467 4.9150471,51.885981 5.3444921,51.728611 9.5025329,50.204885 11.357189,49.176203 14.06233,47.208472 c 1.46334,-1.064438 3.890273,-2.480395 3.980747,-3.881749 0.0622,-0.963429 -0.545017,-1.310698 -1.117151,-1.296772 z"
       sodipodi:nodetypes="scscscsscssssss" />
    <path
       id="path15915"
       style="display:inline;fill:url(#linearGradient16352);stroke:none;stroke-width:0.669895;fill-opacity:1"
       d="m 102.92587,42.030002 c 0.26006,0.0063 0.51236,0.08793 0.69162,0.219937 0.89855,2.039657 3.21417,6.018075 9.54731,7.850616 6.22095,1.800068 5.88,6.850903 5.84939,7.032705 0.0294,0.174285 0.37633,5.367498 -5.84939,7.168953 -6.33314,1.832539 -8.64876,5.810958 -9.54731,7.850615 -0.57363,0.422408 -1.89925,0.323091 -1.80877,-1.078263 0.0905,-1.401353 2.51741,-2.815884 3.98075,-3.88032 2.70513,-1.967732 4.55605,-3.012418 8.71784,-4.521567 2.5616,-1.328047 2.46929,-3.909159 2.24033,-6.339164 -0.26552,-2.818047 -1.8109,-4.447533 -2.24033,-4.604903 -4.15804,-1.523726 -6.01271,-2.552408 -8.71784,-4.520139 -1.46334,-1.064438 -3.89028,-2.480395 -3.98075,-3.881749 -0.0622,-0.963429 0.54501,-1.310698 1.11715,-1.296772 z"
       sodipodi:nodetypes="scscscsscssssss" />
    <circle
       style="display:inline;fill:#8d8c8c;stroke:none;stroke-width:1.63902;fill-opacity:1"
       id="path1870"
       cx="59.944035"
       cy="57.234055"
       r="46.575863" />
    <circle
       style="display:inline;fill:url(#linearGradient20767);fill-opacity:1;stroke:none;stroke-width:1.58356"
       id="circle17840"
       cx="83.160889"
       cy="-4.8553681"
       r="45"
       transform="rotate(47.023317)" />
    <circle
       style="display:inline;fill:#ab200f;fill-opacity:1;stroke:none;stroke-width:1.35569"
       id="circle19298"
       cx="59.944035"
       cy="57.234055"
       r="38.524609" />
    <g
       aria-label="MACS"
       id="text2715"
       style="font-size:37.3333px;line-height:0;display:inline;fill:#eeffe2;fill-opacity:1"
       transform="matrix(0.71835377,0,0,0.82285467,19.336773,3.5477514)">
      <path
         d="m 33.716095,43.554063 c -1.794564,5.036414 -3.634517,9.737255 -5.669187,14.878089 -1.79187,4.52737 -3.03859,7.712511 -3.03859,7.712511 -3.430158,9.194449 -5.253387,12.028285 -7.017931,10.975478 -0.782781,-0.467043 -1.564905,-1.764407 -2.371076,-3.740518 -0.750471,-1.85672 -1.83194,-4.952253 -2.790854,-8.227291 -1.028838,-3.513852 -1.574655,-5.712501 -1.885245,-7.405451 -0.663131,-3.696005 -0.774573,-5.561419 -0.941407,-5.979882 -0.4551374,1.669677 -0.8411086,3.446408 -1.1203187,5.39831 -0.251786,1.760186 -0.3373895,3.123667 -0.3373895,3.123667 -0.1767755,2.612168 -0.1577368,5.057714 -0.1201975,7.057443 0.043284,2.528928 0.1883465,3.884502 0.349158,6.959388 0.1596752,2.78277 0.1461518,4.185081 0.1135063,5.673318 -0.00508,0.429021 -0.3015574,0.626541 -0.8824751,0.515362 C 7.436677,80.396755 6.9959576,80.139889 6.7008306,79.810443 6.0975605,79.137021 5.5692329,78.176427 4.9800455,77.001115 4.4065484,75.856266 4.0410729,75.087089 3.9263163,74.546087 3.67829,73.376809 3.4315469,71.829691 3.3073014,70.05861 3.0054197,65.618577 2.8345458,62.645009 3.4329299,58.652712 3.9462254,55.228109 4.8733853,52.589795 5.391042,51.109236 c 1.061209,-2.995799 2.3728917,-5.446657 3.4694415,-7.253492 0.5594026,-0.921753 1.5160545,-1.961365 2.7491845,-3.111658 1.202368,-1.121599 2.586556,-2.287077 3.816228,-3.184735 0.693941,-0.506576 0.933246,-0.429847 0.882727,0.308523 -0.05095,0.744647 -0.203057,1.663231 -0.469982,2.607795 0.0068,-0.0066 0.0075,-0.05686 0.0075,-0.05686 -0.520376,2.217892 -0.778368,4.827064 -0.654248,8.026586 0.112367,2.896561 0.501928,5.415234 0.501928,5.415234 0.729839,5.274269 2.208115,11.129089 2.498781,12.219244 0.961201,-1.851943 4.215328,-8.946799 7.883729,-17.374401 5.195173,-11.903472 6.079357,-14.484268 8.39988,-20.439217 1.373855,-3.525599 2.185795,-5.557942 2.617925,-5.856039 0.638638,-0.440555 1.307151,-0.189892 2.0703,0.852668 0.769953,1.051855 1.159636,2.168321 1.098758,3.342355 -0.04922,0.949307 -0.651193,7.06902 -1.852012,18.338346 -0.840681,7.966964 -1.650747,16.423222 -2.415208,25.892625 -0.741394,9.183655 -1.131994,14.979917 -1.195566,16.48788 -0.08745,2.074404 -0.08271,4.263659 0.0037,6.59834 0.05612,1.794207 0.04673,3.460235 -0.02315,4.971647 -0.177797,3.845602 -0.527236,6.254312 -1.029045,7.178502 -0.492439,0.94291 -1.180708,0.9003 -2.0762,-0.0678 -1.631337,-1.76356 -2.236142,-6.151555 -2.077676,-12.924419 0.14434,-6.169154 0.430693,-14.508022 1.1507,-23.523768 0.750089,-9.416644 1.634468,-16.74202 2.40531,-22.043244 0.278717,-1.928488 0.461194,-3.194608 0.561956,-3.959319 0,0 2e-6,3e-6 2e-6,3e-6 z"
         style="font-weight:bold;font-family:'Segoe Print';-inkscape-font-specification:'Segoe Print Bold';fill:#eeffe2;fill-opacity:1"
         id="path2819"
         inkscape:path-effect="#path-effect15920"
         inkscape:original-d="m 30.641054,55.852693 -6.070307,8.203118 q -4.210934,5.888016 -6.489578,5.888016 -1.057291,0 -1.877602,-1.203124 -0.820312,-1.221353 -1.677082,-3.700517 -0.85677,-2.479165 -1.203124,-3.755205 -0.783854,-2.953123 -1.057291,-3.354164 l -0.929687,4.739579 q -0.437499,2.296873 -0.893228,4.229163 -0.4557288,1.914061 -1.0026034,4.611975 -0.5286454,2.697915 -0.6562494,4.065101 -0.036458,0.455729 -0.8749993,0.984374 -0.8203118,0.528646 -1.2578114,0.528646 -0.8749993,0 -1.6406236,-0.820312 -0.7473952,-0.802083 -0.7473952,-1.549478 0,-1.749999 0.729166,-4.447913 3.00781,-11.046866 3.4270805,-13.908842 0.4374996,-2.861977 0.4374996,-4.757809 0,-0.984374 0.8567701,-1.513019 0.8567701,-0.528646 2.2421851,-0.528646 0.747396,0 1.494791,0.984374 0.747395,0.984375 0.984374,1.822916 l -0.01823,-0.03646 2.533852,7.09114 q 1.513019,4.247392 2.023436,5.395829 1.968748,-2.132811 5.833328,-7.419265 3.86458,-5.268224 5.286454,-6.781244 1.421874,-1.513019 2.005206,-1.513019 0.893229,0 1.986978,0.747395 1.093749,0.747395 1.093749,1.27604 0,0.401042 -0.710937,5.486975 -0.492187,3.591143 -0.893228,8.039055 -0.401042,4.447913 -0.401042,5.249996 0,0.984374 0.255209,2.023436 0.182291,0.802082 0.182291,1.513019 0,1.804686 -0.63802,2.460936 -0.619791,0.656249 -1.93229,0.656249 -2.388019,0 -2.388019,-3.591143 0,-3.390622 0.619791,-8.276034 0.619791,-4.903642 1.130207,-7.52864 0.182292,-0.947915 0.236979,-1.312499 z" />
      <path
         d="m 42.238001,89.000548 c 0.399247,0.826014 -0.942052,5.162767 -2.07611,10.000344 -1.110197,4.754558 -1.887474,7.090478 -2.295375,7.585718 -0.419256,0.53692 -0.790262,0.8219 -1.108404,0.87756 -0.438669,0.0767 -0.978002,-0.33717 -1.600254,-1.17425 -0.613038,-0.87067 -0.918913,-1.83462 -0.918913,-2.9254 0,-0.50643 0.380607,-2.18979 1.157058,-5.242415 0.690538,-2.714853 2.036034,-7.822106 3.599939,-14.725002 1.813495,-8.018862 3.52699,-17.276008 5.125165,-26.79651 3.49348,-20.889513 4.814906,-28.779943 5.732504,-32.598437 0.664996,-2.754758 1.300615,-3.861198 1.916602,-3.278035 0.974162,0.922251 1.657664,3.303593 2.047082,5.81993 0.202136,0.982982 0.292594,2.500271 0.272205,4.48069 -0.01507,1.464168 -0.06558,2.559948 -0.152457,3.301996 1.902432,26.624657 3.274006,40.826438 4.64318,50.329899 1.259101,8.638395 2.605543,13.754003 3.995765,16.371034 0.718883,1.35326 1.100951,1.95642 1.278833,2.43474 0.166382,0.40629 0.256933,0.99512 0.270713,1.78358 0.02519,1.44146 -0.219206,2.78757 -0.734439,3.99917 -0.511769,1.23084 -1.139926,2.01097 -1.862019,2.23402 -0.998844,0.30853 -2.029879,-0.70946 -3.044387,-3.55099 -1.007647,-2.85746 -1.920927,-7.17331 -2.751822,-13.178124 -0.81526,-5.972489 -1.195471,-9.625158 -1.189492,-10.320095 0.0013,-0.146136 -0.02819,-0.247533 -0.08837,-0.302956 -0.649927,-0.598578 -2.133845,1.359772 -4.465337,2.180676 -2.37144,0.843079 -4.138979,0.06899 -5.640847,2.042917 -0.371884,0.480285 -0.697081,0.789423 -0.976568,0.929435 -0.495225,0.248088 -1.376355,-0.780393 -1.134254,-0.279503 0,0 4e-6,8e-6 4e-6,8e-6 z M 53.22423,71.428531 c -0.260432,-2.529399 -1.005124,-11.645188 -2.224836,-26.5625 -0.113964,-1.364026 -0.192849,-2.229852 -0.235956,-2.603368 -1.107376,5.928553 -2.164865,11.970394 -3.580198,20.170612 -1.220882,7.073598 -2.204432,12.726771 -2.204432,12.726771 0.813635,-0.98569 1.614081,0.03897 2.449541,-0.524891 0.55642,-0.337396 1.967232,-0.210624 4.1809,-1.729275 0.536487,-0.0098 1.089665,-1.74827 1.614981,-1.477349 z"
         style="font-weight:bold;font-family:'Segoe Print';-inkscape-font-specification:'Segoe Print Bold';fill:#eeffe2;fill-opacity:1"
         id="path2821"
         sodipodi:nodetypes="sccscscccscsccscscsccssccsssccccccc"
         inkscape:path-effect="#path-effect15922"
         inkscape:original-d="m 41.949876,70.284973 c 0.389363,0.389363 -0.844618,1.640623 -1.914061,3.390622 -1.057291,1.737846 -1.792533,2.703991 -2.205728,2.898435 -0.413194,0.206597 -0.777777,0.309896 -1.093749,0.309896 -0.437499,0 -0.966145,-0.236979 -1.585936,-0.710937 -0.607638,-0.486111 -0.911457,-0.984374 -0.911457,-1.494791 0,-0.473957 1.525172,-3.032115 4.575517,-7.674472 1.664929,-2.539929 3.184024,-5.055552 4.557287,-7.546869 2.758679,-5.031245 4.441837,-7.953986 5.049475,-8.768221 0.619791,-0.826389 1.251735,-1.239583 1.895832,-1.239583 1.032985,0 1.780381,0.267361 2.242186,0.802083 0.230902,0.170139 0.346353,0.577256 0.346353,1.221353 0,0.473958 -0.04254,0.85677 -0.127604,1.148437 2.223957,6.781244 3.961803,11.581587 5.213538,14.401029 1.263887,2.807289 2.527775,4.842878 3.791663,6.106766 0.631944,0.631944 1.014756,1.057291 1.148437,1.27604 0.145833,0.21875 0.218749,0.510416 0.218749,0.874999 0,0.668403 -0.243055,1.22743 -0.729166,1.677082 -0.486111,0.461805 -1.063367,0.692708 -1.731769,0.692708 -0.923611,0 -1.86545,-0.534722 -2.825518,-1.604165 -0.947916,-1.069443 -1.847221,-2.539928 -2.697915,-4.411455 -0.838541,-1.871526 -1.257811,-2.92274 -1.257811,-3.153643 0,-0.04861 -0.03038,-0.07292 -0.09115,-0.07292 -0.656249,0 -2.120658,1.085257 -4.393225,1.547062 -2.260415,0.461805 -4.077254,0.0571 -5.450517,0.494602 -0.35243,0.109375 -0.662325,0.164063 -0.929686,0.164063 -0.473958,0 -1.331428,-0.565804 -1.093749,-0.328125 z m 10.499991,-5.57812 C 52.1582,63.98984 51.295354,61.437758 49.861327,57.050609 49.727647,56.649568 49.636501,56.39436 49.58789,56.284985 l -5.177079,9.843742 c 0.765625,-0.133681 1.549478,0.336269 2.35156,0.226894 0.534722,-0.06077 1.895832,0.144062 4.08333,-0.765625 0.534722,-0.109375 1.069444,-0.798074 1.604166,-0.883143 z" />
      <path
         d="m 101.16368,51.911724 c -0.97729,-3.037972 -2.226912,-5.18408 -3.413338,-6.289274 -1.237545,-1.174523 -2.626256,-1.755863 -4.244239,-1.806363 -2.773233,-0.08656 -5.004169,0.959563 -7.085529,3.042159 -2.057668,2.044538 -3.096482,4.298007 -2.816799,7.036246 0.178374,1.746374 0.817016,3.337815 1.983119,4.855888 1.035507,1.307559 4.231061,3.956282 8.790418,6.759753 4.731767,2.903937 8.860038,5.587551 10.851318,7.510925 2.22925,2.09671 2.90168,4.299401 1.80009,7.523531 -0.8855,2.591636 -2.78588,5.512741 -5.13043,8.337702 -2.33136,2.809058 -5.230698,5.666018 -8.127986,7.513655 -5.929014,3.760454 -9.668053,2.039277 -14.460999,-0.605416 -1.482671,-0.818121 -2.701576,-1.835346 -3.608749,-3.175643 -0.911738,-1.347044 -1.395911,-2.748454 -1.395911,-4.366748 0,-1.274946 0.220567,-2.428462 0.696025,-3.41621 0.474826,-0.986434 1.060116,-1.380771 1.717488,-1.160788 0.403895,0.13516 0.768967,0.374098 1.090333,0.709447 1.692697,1.847868 3.158844,3.265421 4.624439,4.097186 2.446185,1.388276 5.454423,2.070571 9.379617,0.847148 4.007645,-1.262771 6.746088,-3.849172 7.408634,-6.256621 0.276061,-1.003103 0.04028,-1.971668 -0.730826,-3.002354 -0.723388,-1.02704 -2.501445,-2.54481 -5.288626,-4.790654 -2.914957,-2.340611 -8.529895,-7.211987 -9.548299,-8.106703 -2.172578,-1.920197 -3.88846,-3.956105 -5.061962,-6.114055 -1.170503,-2.211306 -1.757953,-4.576798 -1.832238,-7.316679 -0.129525,-4.777311 1.761864,-9.176377 4.712551,-13.23297 3.006785,-4.133713 6.572647,-6.512489 11.02008,-6.512489 2.514227,0 4.467838,0.986074 6.325369,2.866914 1.82564,1.833037 3.43663,4.005027 4.43277,6.450916 2.05116,5.03634 1.72998,8.343597 -2.08632,8.601497 z"
         style="font-weight:bold;font-family:'Segoe Print';-inkscape-font-specification:'Segoe Print Bold';fill:#eeffe2;fill-opacity:1;stroke-width:1.60353"
         id="path2825"
         inkscape:path-effect="#path-effect16265"
         inkscape:original-d="m 96.307823,49.154904 q 0,-3.790629 -1.138087,-5.245615 -1.1381,-1.493277 -3.347337,-1.493277 -3.771343,0 -7.007109,3.177999 -3.213444,3.139713 -3.213444,6.930339 0,2.412217 1.205044,4.135229 1.227354,1.684723 6.293001,4.21181 5.311116,2.64195 7.877406,5.819951 2.58861,3.139711 2.58861,7.581255 0,7.389808 -6.560788,13.554362 -6.560787,6.126266 -13.634834,6.126266 -2.298505,0 -3.682073,-1.646433 -1.383567,-1.646435 -1.383567,-4.058651 0,-1.91446 0.624836,-3.560893 0.624837,-1.646434 1.495145,-1.646434 0.535576,0 0.981887,0.306313 2.343138,1.723012 4.373857,1.723012 3.48124,0 7.810462,-3.331158 4.351537,-3.369443 4.351537,-6.585734 0,-1.340121 -1.093454,-2.565374 -1.071149,-1.263543 -4.396183,-3.139711 -4.84248,-2.718531 -7.297199,-4.479833 -2.4324,-1.761301 -3.704389,-4.594698 -1.249673,-2.87169 -1.249673,-6.892052 0,-7.160072 4.8648,-13.324626 4.864802,-6.164554 11.42559,-6.164554 3.771341,0 5.935945,2.565373 2.186934,2.565375 2.186934,5.858242 0,6.738892 -4.306917,6.738892 z" />
    </g>
    <path
       style="fill:#ffffff;stroke:#000000"
       d="M 69,19.625 Z"
       id="path16049" />
    <path
       style="fill:none;stroke:#eeffe2;stroke-width:3.66889;stroke-linecap:round;stroke-dasharray:none;stroke-opacity:1"
       d="m 79.311258,30.078828 c -1.067475,-4.139785 -5.110973,-6.368493 -6.816567,-4.924541 -2.845285,2.408814 -5.003291,4.656642 -6.938571,9.906792 -1.935277,5.250151 -3.175131,11.838349 -3.331785,18.633673 -0.156652,6.795327 1.853322,23.072428 3.824621,28.255105 1.971301,5.182677 4.960327,8.453385 8.002501,8.392091 1.845404,-0.03716 3.682852,-1.273992 5.230902,-3.520993"
       id="path16205"
       sodipodi:nodetypes="csssssc" />
  </g>
</svg>
