{
    "asset" : {
        "generator" : "Khronos glTF Blender I/O v3.2.43",
        "version" : "2.0"
    },
    "extensionsUsed" : [
        "KHR_materials_clearcoat"
    ],
    "scene" : 0,
    "scenes" : [
        {
            "name" : "Scene",
            "nodes" : [
                0,
                1,
                2,
                3,
                4,
                5,
                6,
                7,
                8,
                9
            ]
        }
    ],
    "nodes" : [
        {
            "mesh" : 0,
            "name" : "screen",
            "scale" : [
                1.100000023841858,
                1,
                2.1543569564819336
            ]
        },
        {
            "mesh" : 1,
            "name" : "front",
            "scale" : [
                1.100000023841858,
                1,
                2.1543569564819336
            ]
        },
        {
            "mesh" : 2,
            "name" : "cameraBox",
            "scale" : [
                0.3015172779560089,
                0.25,
                0.37285664677619934
            ],
            "translation" : [
                0.6301048398017883,
                -0.02068287692964077,
                -1.637749195098877
            ]
        },
        {
            "mesh" : 3,
            "name" : "cameraTrim",
            "scale" : [
                0.14000000059604645,
                0.019999999552965164,
                0.14000000059604645
            ],
            "translation" : [
                0.7400000095367432,
                -0.005926578305661678,
                -1.8147433996200562
            ]
        },
        {
            "mesh" : 4,
            "name" : "lens",
            "scale" : [
                0.11500000208616257,
                0.019999999552965164,
                0.11500000208616257
            ],
            "translation" : [
                0.7400000095367432,
                -0.009278000332415104,
                -1.4492193460464478
            ]
        },
        {
            "mesh" : 5,
            "name" : "flash",
            "scale" : [
                0.042754895985126495,
                0.009999999776482582,
                0.042754895985126495
            ],
            "translation" : [
                0.49235084652900696,
                -0.014450288377702236,
                -1.6354304552078247
            ]
        },
        {
            "mesh" : 6,
            "name" : "powerButton",
            "rotation" : [
                0.5,
                0.5,
                -0.5,
                0.5
            ],
            "scale" : [
                0.3667328357696533,
                1,
                0.03999999910593033
            ],
            "translation" : [
                1.0660834312438965,
                0.10007954388856888,
                -0.8568313121795654
            ]
        },
        {
            "mesh" : 7,
            "name" : "volumeButtons",
            "rotation" : [
                0.5,
                0.5,
                -0.5,
                0.5
            ],
            "scale" : [
                0.20200000703334808,
                1,
                0.03999999910593033
            ],
            "translation" : [
                -1.1196659803390503,
                0.10007954388856888,
                -1.100000023841858
            ]
        },
        {
            "mesh" : 8,
            "name" : "phoneBase",
            "scale" : [
                1.100000023841858,
                1,
                2.1543569564819336
            ]
        },
        {
            "mesh" : 9,
            "name" : "apple",
            "scale" : [
                1.100000023841858,
                1,
                2.1543569564819336
            ]
        }
    ],
    "materials" : [
        {
            "doubleSided" : true,
            "emissiveFactor" : [
                0.06916346400976181,
                0.0604560449719429,
                0.054559141397476196
            ],
            "name" : "screenGlass",
            "pbrMetallicRoughness" : {
                "baseColorFactor" : [
                    0,
                    0,
                    0,
                    1
                ],
                "metallicFactor" : 0,
                "roughnessFactor" : 0.04500000178813934
            }
        },
        {
            "doubleSided" : true,
            "extensions" : {
                "KHR_materials_clearcoat" : {
                    "clearcoatFactor" : 0.6000000238418579,
                    "clearcoatRoughnessFactor" : 0.019999999552965164
                }
            },
            "name" : "front",
            "pbrMetallicRoughness" : {
                "baseColorFactor" : [
                    0,
                    0,
                    0,
                    1
                ],
                "metallicFactor" : 0,
                "roughnessFactor" : 0.20000000298023224
            }
        },
        {
            "doubleSided" : true,
            "extensions" : {
                "KHR_materials_clearcoat" : {
                    "clearcoatFactor" : 0.6000000238418579,
                    "clearcoatRoughnessFactor" : 0.019999999552965164
                }
            },
            "name" : "camerasBox",
            "pbrMetallicRoughness" : {
                "baseColorFactor" : [
                    0.7991021275520325,
                    0.5972013473510742,
                    1,
                    0.25
                ],
                "metallicFactor" : 0,
                "roughnessFactor" : 0.20000000298023224
            }
        },
        {
            "doubleSided" : true,
            "name" : "cameraMetal",
            "pbrMetallicRoughness" : {
                "baseColorFactor" : [
                    0.9042685627937317,
                    0.8080600500106812,
                    1,
                    1
                ],
                "roughnessFactor" : 0.25
            }
        },
        {
            "doubleSided" : true,
            "name" : "cameraLens",
            "pbrMetallicRoughness" : {
                "baseColorFactor" : [
                    0.028426002711057663,
                    0.02842600829899311,
                    0.02842603623867035,
                    1
                ],
                "metallicFactor" : 0,
                "roughnessFactor" : 0
            }
        },
        {
            "doubleSided" : true,
            "name" : "light",
            "pbrMetallicRoughness" : {
                "baseColorFactor" : [
                    0.800000011920929,
                    0.800000011920929,
                    0.800000011920929,
                    1
                ],
                "metallicFactor" : 0,
                "roughnessFactor" : 0.12545454502105713
            }
        },
        {
            "doubleSided" : true,
            "extensions" : {
                "KHR_materials_clearcoat" : {
                    "clearcoatFactor" : 0.6000000238418579,
                    "clearcoatRoughnessFactor" : 0.10000000149011612
                }
            },
            "name" : "phone",
            "pbrMetallicRoughness" : {
                "baseColorFactor" : [
                    0.5771693587303162,
                    0.42417046427726746,
                    0.7650575637817383,
                    1
                ],
                "metallicFactor" : 0.6000000238418579,
                "roughnessFactor" : 0.25
            }
        },
        {
            "doubleSided" : true,
            "name" : "appleIcon",
            "pbrMetallicRoughness" : {
                "baseColorFactor" : [
                    0.8559101223945618,
                    0.7501699328422546,
                    1,
                    1
                ],
                "roughnessFactor" : 0.22363635897636414
            }
        }
    ],
    "meshes" : [
        {
            "name" : "Plane.003",
            "primitives" : [
                {
                    "attributes" : {
                        "POSITION" : 0,
                        "NORMAL" : 1,
                        "TEXCOORD_0" : 2
                    },
                    "indices" : 3,
                    "material" : 0
                }
            ]
        },
        {
            "name" : "Plane.004",
            "primitives" : [
                {
                    "attributes" : {
                        "POSITION" : 4,
                        "NORMAL" : 5,
                        "TEXCOORD_0" : 6
                    },
                    "indices" : 7,
                    "material" : 1
                }
            ]
        },
        {
            "name" : "Plane.006",
            "primitives" : [
                {
                    "attributes" : {
                        "POSITION" : 8,
                        "NORMAL" : 9,
                        "TEXCOORD_0" : 10
                    },
                    "indices" : 11,
                    "material" : 2
                }
            ]
        },
        {
            "name" : "Cylinder.001",
            "primitives" : [
                {
                    "attributes" : {
                        "POSITION" : 12,
                        "NORMAL" : 13,
                        "TEXCOORD_0" : 14
                    },
                    "indices" : 15,
                    "material" : 3
                }
            ]
        },
        {
            "name" : "Cylinder.003",
            "primitives" : [
                {
                    "attributes" : {
                        "POSITION" : 16,
                        "NORMAL" : 17,
                        "TEXCOORD_0" : 18
                    },
                    "indices" : 19,
                    "material" : 4
                }
            ]
        },
        {
            "name" : "Cylinder.004",
            "primitives" : [
                {
                    "attributes" : {
                        "POSITION" : 20,
                        "NORMAL" : 21,
                        "TEXCOORD_0" : 22
                    },
                    "indices" : 23,
                    "material" : 5
                }
            ]
        },
        {
            "name" : "BezierCircle.002",
            "primitives" : [
                {
                    "attributes" : {
                        "POSITION" : 24,
                        "NORMAL" : 25,
                        "TEXCOORD_0" : 26
                    },
                    "indices" : 27,
                    "material" : 6
                }
            ]
        },
        {
            "name" : "BezierCircle.004",
            "primitives" : [
                {
                    "attributes" : {
                        "POSITION" : 28,
                        "NORMAL" : 29,
                        "TEXCOORD_0" : 30
                    },
                    "indices" : 31,
                    "material" : 6
                }
            ]
        },
        {
            "name" : "Plane.008",
            "primitives" : [
                {
                    "attributes" : {
                        "POSITION" : 32,
                        "NORMAL" : 33,
                        "TEXCOORD_0" : 34
                    },
                    "indices" : 35,
                    "material" : 6
                }
            ]
        },
        {
            "name" : "Plane.001",
            "primitives" : [
                {
                    "attributes" : {
                        "POSITION" : 36,
                        "NORMAL" : 37,
                        "TEXCOORD_0" : 38
                    },
                    "indices" : 39,
                    "material" : 7
                }
            ]
        }
    ],
    "accessors" : [
        {
            "bufferView" : 0,
            "componentType" : 5126,
            "count" : 101,
            "max" : [
                0.9399999976158142,
                0.20000000298023224,
                0.9399999976158142
            ],
            "min" : [
                -0.9399999976158142,
                0.20000000298023224,
                -0.9399999976158142
            ],
            "type" : "VEC3"
        },
        {
            "bufferView" : 1,
            "componentType" : 5126,
            "count" : 101,
            "type" : "VEC3"
        },
        {
            "bufferView" : 2,
            "componentType" : 5126,
            "count" : 101,
            "type" : "VEC2"
        },
        {
            "bufferView" : 3,
            "componentType" : 5123,
            "count" : 297,
            "type" : "SCALAR"
        },
        {
            "bufferView" : 4,
            "componentType" : 5126,
            "count" : 174,
            "max" : [
                0.9916350245475769,
                0.20000000298023224,
                0.9916350245475769
            ],
            "min" : [
                -0.9916350245475769,
                0.20000000298023224,
                -1
            ],
            "type" : "VEC3"
        },
        {
            "bufferView" : 5,
            "componentType" : 5126,
            "count" : 174,
            "type" : "VEC3"
        },
        {
            "bufferView" : 6,
            "componentType" : 5126,
            "count" : 174,
            "type" : "VEC2"
        },
        {
            "bufferView" : 7,
            "componentType" : 5123,
            "count" : 498,
            "type" : "SCALAR"
        },
        {
            "bufferView" : 8,
            "componentType" : 5126,
            "count" : 144,
            "max" : [
                1,
                0.07999999821186066,
                1
            ],
            "min" : [
                -1,
                0,
                -1
            ],
            "type" : "VEC3"
        },
        {
            "bufferView" : 9,
            "componentType" : 5126,
            "count" : 144,
            "type" : "VEC3"
        },
        {
            "bufferView" : 10,
            "componentType" : 5126,
            "count" : 144,
            "type" : "VEC2"
        },
        {
            "bufferView" : 11,
            "componentType" : 5123,
            "count" : 420,
            "type" : "SCALAR"
        },
        {
            "bufferView" : 12,
            "componentType" : 5126,
            "count" : 260,
            "max" : [
                1,
                1,
                3.6108875274658203
            ],
            "min" : [
                -1,
                -1,
                -1
            ],
            "type" : "VEC3"
        },
        {
            "bufferView" : 13,
            "componentType" : 5126,
            "count" : 260,
            "type" : "VEC3"
        },
        {
            "bufferView" : 14,
            "componentType" : 5126,
            "count" : 260,
            "type" : "VEC2"
        },
        {
            "bufferView" : 15,
            "componentType" : 5123,
            "count" : 744,
            "type" : "SCALAR"
        },
        {
            "bufferView" : 16,
            "componentType" : 5126,
            "count" : 260,
            "max" : [
                1,
                1,
                1
            ],
            "min" : [
                -1,
                -1,
                -4.178470611572266
            ],
            "type" : "VEC3"
        },
        {
            "bufferView" : 17,
            "componentType" : 5126,
            "count" : 260,
            "type" : "VEC3"
        },
        {
            "bufferView" : 18,
            "componentType" : 5126,
            "count" : 260,
            "type" : "VEC2"
        },
        {
            "bufferView" : 19,
            "componentType" : 5123,
            "count" : 744,
            "type" : "SCALAR"
        },
        {
            "bufferView" : 20,
            "componentType" : 5126,
            "count" : 192,
            "max" : [
                1,
                1,
                1
            ],
            "min" : [
                -1,
                -1,
                -1
            ],
            "type" : "VEC3"
        },
        {
            "bufferView" : 21,
            "componentType" : 5126,
            "count" : 192,
            "type" : "VEC3"
        },
        {
            "bufferView" : 22,
            "componentType" : 5126,
            "count" : 192,
            "type" : "VEC2"
        },
        {
            "bufferView" : 23,
            "componentType" : 5123,
            "count" : 372,
            "type" : "SCALAR"
        },
        {
            "bufferView" : 24,
            "componentType" : 5126,
            "count" : 192,
            "max" : [
                1.017467737197876,
                0.05000000074505806,
                1.0150007009506226
            ],
            "min" : [
                -1.017467737197876,
                -4.294861688514118e-10,
                -1.0150007009506226
            ],
            "type" : "VEC3"
        },
        {
            "bufferView" : 25,
            "componentType" : 5126,
            "count" : 192,
            "type" : "VEC3"
        },
        {
            "bufferView" : 26,
            "componentType" : 5126,
            "count" : 192,
            "type" : "VEC2"
        },
        {
            "bufferView" : 27,
            "componentType" : 5123,
            "count" : 564,
            "type" : "SCALAR"
        },
        {
            "bufferView" : 28,
            "componentType" : 5126,
            "count" : 384,
            "max" : [
                1.017467737197876,
                0.05000000074505806,
                1.0150012969970703
            ],
            "min" : [
                -3.4630119800567627,
                -4.2948666845177286e-10,
                -1.0150007009506226
            ],
            "type" : "VEC3"
        },
        {
            "bufferView" : 29,
            "componentType" : 5126,
            "count" : 384,
            "type" : "VEC3"
        },
        {
            "bufferView" : 30,
            "componentType" : 5126,
            "count" : 384,
            "type" : "VEC2"
        },
        {
            "bufferView" : 31,
            "componentType" : 5123,
            "count" : 1128,
            "type" : "SCALAR"
        },
        {
            "bufferView" : 32,
            "componentType" : 5126,
            "count" : 923,
            "max" : [
                1,
                0.20000000298023224,
                1
            ],
            "min" : [
                -1,
                0,
                -1
            ],
            "type" : "VEC3"
        },
        {
            "bufferView" : 33,
            "componentType" : 5126,
            "count" : 923,
            "type" : "VEC3"
        },
        {
            "bufferView" : 34,
            "componentType" : 5126,
            "count" : 923,
            "type" : "VEC2"
        },
        {
            "bufferView" : 35,
            "componentType" : 5123,
            "count" : 2745,
            "type" : "SCALAR"
        },
        {
            "bufferView" : 36,
            "componentType" : 5126,
            "count" : 271,
            "max" : [
                0.19950157403945923,
                0,
                0.1908983588218689
            ],
            "min" : [
                -0.20257699489593506,
                0,
                -0.06199502944946289
            ],
            "type" : "VEC3"
        },
        {
            "bufferView" : 37,
            "componentType" : 5126,
            "count" : 271,
            "type" : "VEC3"
        },
        {
            "bufferView" : 38,
            "componentType" : 5126,
            "count" : 271,
            "type" : "VEC2"
        },
        {
            "bufferView" : 39,
            "componentType" : 5123,
            "count" : 801,
            "type" : "SCALAR"
        }
    ],
    "bufferViews" : [
        {
            "buffer" : 0,
            "byteLength" : 1212,
            "byteOffset" : 0
        },
        {
            "buffer" : 0,
            "byteLength" : 1212,
            "byteOffset" : 1212
        },
        {
            "buffer" : 0,
            "byteLength" : 808,
            "byteOffset" : 2424
        },
        {
            "buffer" : 0,
            "byteLength" : 594,
            "byteOffset" : 3232
        },
        {
            "buffer" : 0,
            "byteLength" : 2088,
            "byteOffset" : 3828
        },
        {
            "buffer" : 0,
            "byteLength" : 2088,
            "byteOffset" : 5916
        },
        {
            "buffer" : 0,
            "byteLength" : 1392,
            "byteOffset" : 8004
        },
        {
            "buffer" : 0,
            "byteLength" : 996,
            "byteOffset" : 9396
        },
        {
            "buffer" : 0,
            "byteLength" : 1728,
            "byteOffset" : 10392
        },
        {
            "buffer" : 0,
            "byteLength" : 1728,
            "byteOffset" : 12120
        },
        {
            "buffer" : 0,
            "byteLength" : 1152,
            "byteOffset" : 13848
        },
        {
            "buffer" : 0,
            "byteLength" : 840,
            "byteOffset" : 15000
        },
        {
            "buffer" : 0,
            "byteLength" : 3120,
            "byteOffset" : 15840
        },
        {
            "buffer" : 0,
            "byteLength" : 3120,
            "byteOffset" : 18960
        },
        {
            "buffer" : 0,
            "byteLength" : 2080,
            "byteOffset" : 22080
        },
        {
            "buffer" : 0,
            "byteLength" : 1488,
            "byteOffset" : 24160
        },
        {
            "buffer" : 0,
            "byteLength" : 3120,
            "byteOffset" : 25648
        },
        {
            "buffer" : 0,
            "byteLength" : 3120,
            "byteOffset" : 28768
        },
        {
            "buffer" : 0,
            "byteLength" : 2080,
            "byteOffset" : 31888
        },
        {
            "buffer" : 0,
            "byteLength" : 1488,
            "byteOffset" : 33968
        },
        {
            "buffer" : 0,
            "byteLength" : 2304,
            "byteOffset" : 35456
        },
        {
            "buffer" : 0,
            "byteLength" : 2304,
            "byteOffset" : 37760
        },
        {
            "buffer" : 0,
            "byteLength" : 1536,
            "byteOffset" : 40064
        },
        {
            "buffer" : 0,
            "byteLength" : 744,
            "byteOffset" : 41600
        },
        {
            "buffer" : 0,
            "byteLength" : 2304,
            "byteOffset" : 42344
        },
        {
            "buffer" : 0,
            "byteLength" : 2304,
            "byteOffset" : 44648
        },
        {
            "buffer" : 0,
            "byteLength" : 1536,
            "byteOffset" : 46952
        },
        {
            "buffer" : 0,
            "byteLength" : 1128,
            "byteOffset" : 48488
        },
        {
            "buffer" : 0,
            "byteLength" : 4608,
            "byteOffset" : 49616
        },
        {
            "buffer" : 0,
            "byteLength" : 4608,
            "byteOffset" : 54224
        },
        {
            "buffer" : 0,
            "byteLength" : 3072,
            "byteOffset" : 58832
        },
        {
            "buffer" : 0,
            "byteLength" : 2256,
            "byteOffset" : 61904
        },
        {
            "buffer" : 0,
            "byteLength" : 11076,
            "byteOffset" : 64160
        },
        {
            "buffer" : 0,
            "byteLength" : 11076,
            "byteOffset" : 75236
        },
        {
            "buffer" : 0,
            "byteLength" : 7384,
            "byteOffset" : 86312
        },
        {
            "buffer" : 0,
            "byteLength" : 5490,
            "byteOffset" : 93696
        },
        {
            "buffer" : 0,
            "byteLength" : 3252,
            "byteOffset" : 99188
        },
        {
            "buffer" : 0,
            "byteLength" : 3252,
            "byteOffset" : 102440
        },
        {
            "buffer" : 0,
            "byteLength" : 2168,
            "byteOffset" : 105692
        },
        {
            "buffer" : 0,
            "byteLength" : 1602,
            "byteOffset" : 107860
        }
    ],
    "buffers" : [
        {
            "byteLength" : 109464,
            "uri" : "data:application/octet-stream;base64,"
        }
    ]
}
