{
    "asset" : {
        "generator" : "Khronos glTF Blender I/O v3.2.43",
        "version" : "2.0"
    },
    "scene" : 0,
    "scenes" : [
        {
            "name" : "Scene",
            "nodes" : [
                0,
                1,
                2,
                3,
                4,
                5,
                6,
                7,
                8,
                9
            ]
        }
    ],
    "nodes" : [
        {
            "mesh" : 0,
            "name" : "base",
            "rotation" : [
                -0.00027034105733036995,
                -0.006860960274934769,
                0.008659986779093742,
                0.9999390244483948
            ],
            "scale" : [
                1,
                1.0560005903244019,
                1.5000001192092896
            ],
            "translation" : [
                0.6400770545005798,
                -0.022341907024383545,
                -0.06780683994293213
            ]
        },
        {
            "mesh" : 1,
            "name" : "button1",
            "rotation" : [
                -0.006314688827842474,
                0.7022122740745544,
                0.0059324875473976135,
                0.7119149565696716
            ],
            "scale" : [
                0.11327891796827316,
                0.01956762559711933,
                0.07950471341609955
            ],
            "translation" : [
                0.3302156925201416,
                0.02091328799724579,
                -0.055002033710479736
            ]
        },
        {
            "mesh" : 2,
            "name" : "mouse",
            "rotation" : [
                -0.00027034105733036995,
                -0.006860960274934769,
                0.008659986779093742,
                0.9999390244483948
            ],
            "scale" : [
                1,
                1.0560005903244019,
                1.5000001192092896
            ],
            "translation" : [
                0.6400770545005798,
                -0.022341907024383545,
                -0.06780683994293213
            ]
        },
        {
            "mesh" : 3,
            "name" : "keys",
            "rotation" : [
                -0.00027034105733036995,
                -0.006860960274934769,
                0.008659986779093742,
                0.9999390244483948
            ],
            "scale" : [
                1,
                1.0560005903244019,
                1.5000001192092896
            ],
            "translation" : [
                0.6400770545005798,
                -0.022341907024383545,
                -0.06780683994293213
            ]
        },
        {
            "mesh" : 4,
            "name" : "button2",
            "rotation" : [
                -0.006314688362181187,
                0.7022122740745544,
                0.0059324875473976135,
                0.7119149565696716
            ],
            "scale" : [
                0.11327891796827316,
                0.01956762559711933,
                0.07882661372423172
            ],
            "translation" : [
                0.33393701910972595,
                0.02079896628856659,
                -0.32609182596206665
            ]
        },
        {
            "mesh" : 5,
            "name" : "button3",
            "rotation" : [
                -0.006314688362181187,
                0.7022122740745544,
                0.0059324875473976135,
                0.7119149565696716
            ],
            "scale" : [
                0.11327891796827316,
                0.01956762559711933,
                0.07882661372423172
            ],
            "translation" : [
                0.33770105242729187,
                0.020683348178863525,
                -0.6003018617630005
            ]
        },
        {
            "mesh" : 6,
            "name" : "button4",
            "rotation" : [
                -0.006314688362181187,
                0.7022122740745544,
                0.0059324875473976135,
                0.7119149565696716
            ],
            "scale" : [
                0.11327891796827316,
                0.01956762559711933,
                0.07882661372423172
            ],
            "translation" : [
                0.3414515256881714,
                0.020568177103996277,
                -0.8735257387161255
            ]
        },
        {
            "mesh" : 7,
            "name" : "button5",
            "rotation" : [
                -0.006314688362181187,
                0.7022122740745544,
                0.0059324875473976135,
                0.7119149565696716
            ],
            "scale" : [
                0.1295386552810669,
                0.01956762559711933,
                0.07882661372423172
            ],
            "translation" : [
                0.3454740643501282,
                0.020444601774215698,
                -1.166555643081665
            ]
        },
        {
            "mesh" : 8,
            "name" : "top",
            "rotation" : [
                -0.7650405168533325,
                0.643945574760437,
                -0.0053865076042711735,
                0.004258255008608103
            ],
            "scale" : [
                1,
                1,
                1.5000001192092896
            ],
            "translation" : [
                -0.5431712865829468,
                0.9950874447822571,
                -0.0854816734790802
            ]
        },
        {
            "mesh" : 9,
            "name" : "screen",
            "rotation" : [
                -0.7650405168533325,
                0.643945574760437,
                -0.0053865076042711735,
                0.004258255008608103
            ],
            "scale" : [
                1,
                1,
                1.5000001192092896
            ],
            "translation" : [
                -0.5431712865829468,
                0.9950874447822571,
                -0.0854816734790802
            ]
        }
    ],
    "materials" : [
        {
            "doubleSided" : true,
            "name" : "ComputerBase",
            "pbrMetallicRoughness" : {
                "baseColorFactor" : [
                    0.7991020679473877,
                    0.799102246761322,
                    0.7991029620170593,
                    1
                ],
                "metallicFactor" : 0.5640000104904175,
                "roughnessFactor" : 0.4000000059604645
            }
        },
        {
            "doubleSided" : true,
            "name" : "blackButton",
            "pbrMetallicRoughness" : {
                "baseColorFactor" : [
                    0.11443526297807693,
                    0.11443528532981873,
                    0.11443539708852768,
                    1
                ],
                "metallicFactor" : 0.5636363625526428,
                "roughnessFactor" : 0.4000000059604645
            }
        },
        {
            "doubleSided" : true,
            "name" : "mouse",
            "pbrMetallicRoughness" : {
                "baseColorFactor" : [
                    0,
                    0,
                    0,
                    1
                ],
                "metallicFactor" : 0,
                "roughnessFactor" : 0.17499999701976776
            }
        },
        {
            "doubleSided" : true,
            "emissiveFactor" : [
                0.5,
                0.5,
                0.5
            ],
            "emissiveTexture" : {
                "index" : 0
            },
            "name" : "computerScreen",
            "pbrMetallicRoughness" : {
                "baseColorTexture" : {
                    "index" : 1
                },
                "metallicFactor" : 0,
                "roughnessFactor" : 0.24242424964904785
            }
        }
    ],
    "meshes" : [
        {
            "name" : "Plane.001",
            "primitives" : [
                {
                    "attributes" : {
                        "POSITION" : 0,
                        "NORMAL" : 1,
                        "TEXCOORD_0" : 2
                    },
                    "indices" : 3,
                    "material" : 0
                }
            ]
        },
        {
            "name" : "Cube.005",
            "primitives" : [
                {
                    "attributes" : {
                        "POSITION" : 4,
                        "NORMAL" : 5,
                        "TEXCOORD_0" : 6
                    },
                    "indices" : 7,
                    "material" : 1
                }
            ]
        },
        {
            "name" : "Plane.003",
            "primitives" : [
                {
                    "attributes" : {
                        "POSITION" : 8,
                        "NORMAL" : 9,
                        "TEXCOORD_0" : 10
                    },
                    "indices" : 11,
                    "material" : 2
                }
            ]
        },
        {
            "name" : "Plane.002",
            "primitives" : [
                {
                    "attributes" : {
                        "POSITION" : 12,
                        "NORMAL" : 13,
                        "TEXCOORD_0" : 14
                    },
                    "indices" : 15,
                    "material" : 1
                }
            ]
        },
        {
            "name" : "Cube.007",
            "primitives" : [
                {
                    "attributes" : {
                        "POSITION" : 16,
                        "NORMAL" : 17,
                        "TEXCOORD_0" : 18
                    },
                    "indices" : 7,
                    "material" : 1
                }
            ]
        },
        {
            "name" : "Cube.008",
            "primitives" : [
                {
                    "attributes" : {
                        "POSITION" : 19,
                        "NORMAL" : 20,
                        "TEXCOORD_0" : 21
                    },
                    "indices" : 7,
                    "material" : 1
                }
            ]
        },
        {
            "name" : "Cube.009",
            "primitives" : [
                {
                    "attributes" : {
                        "POSITION" : 22,
                        "NORMAL" : 23,
                        "TEXCOORD_0" : 24
                    },
                    "indices" : 7,
                    "material" : 1
                }
            ]
        },
        {
            "name" : "Cube.010",
            "primitives" : [
                {
                    "attributes" : {
                        "POSITION" : 25,
                        "NORMAL" : 26,
                        "TEXCOORD_0" : 27
                    },
                    "indices" : 7,
                    "material" : 1
                }
            ]
        },
        {
            "name" : "Plane",
            "primitives" : [
                {
                    "attributes" : {
                        "POSITION" : 28,
                        "NORMAL" : 29,
                        "TEXCOORD_0" : 30
                    },
                    "indices" : 31,
                    "material" : 0
                }
            ]
        },
        {
            "name" : "Plane.005",
            "primitives" : [
                {
                    "attributes" : {
                        "POSITION" : 32,
                        "NORMAL" : 33,
                        "TEXCOORD_0" : 34
                    },
                    "indices" : 35,
                    "material" : 3
                }
            ]
        }
    ],
    "textures" : [
        {
            "sampler" : 0,
            "source" : 0
        },
        {
            "sampler" : 0,
            "source" : 0
        }
    ],
    "images" : [
        {
            "bufferView" : 36,
            "mimeType" : "image/png",
            "name" : "res"
        }
    ],
    "accessors" : [
        {
            "bufferView" : 0,
            "componentType" : 5126,
            "count" : 5955,
            "max" : [
                1,
                0.07102268934249878,
                1
            ],
            "min" : [
                -1,
                0,
                -1
            ],
            "type" : "VEC3"
        },
        {
            "bufferView" : 1,
            "componentType" : 5126,
            "count" : 5955,
            "type" : "VEC3"
        },
        {
            "bufferView" : 2,
            "componentType" : 5126,
            "count" : 5955,
            "type" : "VEC2"
        },
        {
            "bufferView" : 3,
            "componentType" : 5123,
            "count" : 20370,
            "type" : "SCALAR"
        },
        {
            "bufferView" : 4,
            "componentType" : 5126,
            "count" : 119,
            "max" : [
                1,
                1,
                1
            ],
            "min" : [
                -1,
                -1,
                -1
            ],
            "type" : "VEC3"
        },
        {
            "bufferView" : 5,
            "componentType" : 5126,
            "count" : 119,
            "type" : "VEC3"
        },
        {
            "bufferView" : 6,
            "componentType" : 5126,
            "count" : 119,
            "type" : "VEC2"
        },
        {
            "bufferView" : 7,
            "componentType" : 5123,
            "count" : 540,
            "type" : "SCALAR"
        },
        {
            "bufferView" : 8,
            "componentType" : 5126,
            "count" : 24,
            "max" : [
                0.9187099933624268,
                0.046164751052856445,
                0.46666663885116577
            ],
            "min" : [
                0.4966491162776947,
                0.043296314775943756,
                -0.40000027418136597
            ],
            "type" : "VEC3"
        },
        {
            "bufferView" : 9,
            "componentType" : 5126,
            "count" : 24,
            "type" : "VEC3"
        },
        {
            "bufferView" : 10,
            "componentType" : 5126,
            "count" : 24,
            "type" : "VEC2"
        },
        {
            "bufferView" : 11,
            "componentType" : 5123,
            "count" : 66,
            "type" : "SCALAR"
        },
        {
            "bufferView" : 12,
            "componentType" : 5126,
            "count" : 4403,
            "max" : [
                0.37518957257270813,
                0.07492171227931976,
                0.854812741279602
            ],
            "min" : [
                -0.6972145438194275,
                0.008711046539247036,
                -0.8177149295806885
            ],
            "type" : "VEC3"
        },
        {
            "bufferView" : 13,
            "componentType" : 5126,
            "count" : 4403,
            "type" : "VEC3"
        },
        {
            "bufferView" : 14,
            "componentType" : 5126,
            "count" : 4403,
            "type" : "VEC2"
        },
        {
            "bufferView" : 15,
            "componentType" : 5123,
            "count" : 22218,
            "type" : "SCALAR"
        },
        {
            "bufferView" : 16,
            "componentType" : 5126,
            "count" : 119,
            "max" : [
                1,
                1,
                1
            ],
            "min" : [
                -1,
                -1,
                -1
            ],
            "type" : "VEC3"
        },
        {
            "bufferView" : 17,
            "componentType" : 5126,
            "count" : 119,
            "type" : "VEC3"
        },
        {
            "bufferView" : 18,
            "componentType" : 5126,
            "count" : 119,
            "type" : "VEC2"
        },
        {
            "bufferView" : 19,
            "componentType" : 5126,
            "count" : 119,
            "max" : [
                1,
                1,
                1
            ],
            "min" : [
                -1,
                -1,
                -1
            ],
            "type" : "VEC3"
        },
        {
            "bufferView" : 20,
            "componentType" : 5126,
            "count" : 119,
            "type" : "VEC3"
        },
        {
            "bufferView" : 21,
            "componentType" : 5126,
            "count" : 119,
            "type" : "VEC2"
        },
        {
            "bufferView" : 22,
            "componentType" : 5126,
            "count" : 119,
            "max" : [
                1,
                1,
                1
            ],
            "min" : [
                -1,
                -1,
                -1
            ],
            "type" : "VEC3"
        },
        {
            "bufferView" : 23,
            "componentType" : 5126,
            "count" : 119,
            "type" : "VEC3"
        },
        {
            "bufferView" : 24,
            "componentType" : 5126,
            "count" : 119,
            "type" : "VEC2"
        },
        {
            "bufferView" : 25,
            "componentType" : 5126,
            "count" : 119,
            "max" : [
                1,
                1,
                1
            ],
            "min" : [
                -1,
                -1,
                -1
            ],
            "type" : "VEC3"
        },
        {
            "bufferView" : 26,
            "componentType" : 5126,
            "count" : 119,
            "type" : "VEC3"
        },
        {
            "bufferView" : 27,
            "componentType" : 5126,
            "count" : 119,
            "type" : "VEC2"
        },
        {
            "bufferView" : 28,
            "componentType" : 5126,
            "count" : 220,
            "max" : [
                1.0613715648651123,
                0.02500000037252903,
                1
            ],
            "min" : [
                -0.9386284351348877,
                -0.01688913255929947,
                -1
            ],
            "type" : "VEC3"
        },
        {
            "bufferView" : 29,
            "componentType" : 5126,
            "count" : 220,
            "type" : "VEC3"
        },
        {
            "bufferView" : 30,
            "componentType" : 5126,
            "count" : 220,
            "type" : "VEC2"
        },
        {
            "bufferView" : 31,
            "componentType" : 5123,
            "count" : 654,
            "type" : "SCALAR"
        },
        {
            "bufferView" : 32,
            "componentType" : 5126,
            "count" : 44,
            "max" : [
                0.9049924612045288,
                0.0061415028758347034,
                0.9523166418075562
            ],
            "min" : [
                -0.8514193892478943,
                -0.01688913255929947,
                -0.9523166418075562
            ],
            "type" : "VEC3"
        },
        {
            "bufferView" : 33,
            "componentType" : 5126,
            "count" : 44,
            "type" : "VEC3"
        },
        {
            "bufferView" : 34,
            "componentType" : 5126,
            "count" : 44,
            "type" : "VEC2"
        },
        {
            "bufferView" : 35,
            "componentType" : 5123,
            "count" : 126,
            "type" : "SCALAR"
        }
    ],
    "bufferViews" : [
        {
            "buffer" : 0,
            "byteLength" : 71460,
            "byteOffset" : 0
        },
        {
            "buffer" : 0,
            "byteLength" : 71460,
            "byteOffset" : 71460
        },
        {
            "buffer" : 0,
            "byteLength" : 47640,
            "byteOffset" : 142920
        },
        {
            "buffer" : 0,
            "byteLength" : 40740,
            "byteOffset" : 190560
        },
        {
            "buffer" : 0,
            "byteLength" : 1428,
            "byteOffset" : 231300
        },
        {
            "buffer" : 0,
            "byteLength" : 1428,
            "byteOffset" : 232728
        },
        {
            "buffer" : 0,
            "byteLength" : 952,
            "byteOffset" : 234156
        },
        {
            "buffer" : 0,
            "byteLength" : 1080,
            "byteOffset" : 235108
        },
        {
            "buffer" : 0,
            "byteLength" : 288,
            "byteOffset" : 236188
        },
        {
            "buffer" : 0,
            "byteLength" : 288,
            "byteOffset" : 236476
        },
        {
            "buffer" : 0,
            "byteLength" : 192,
            "byteOffset" : 236764
        },
        {
            "buffer" : 0,
            "byteLength" : 132,
            "byteOffset" : 236956
        },
        {
            "buffer" : 0,
            "byteLength" : 52836,
            "byteOffset" : 237088
        },
        {
            "buffer" : 0,
            "byteLength" : 52836,
            "byteOffset" : 289924
        },
        {
            "buffer" : 0,
            "byteLength" : 35224,
            "byteOffset" : 342760
        },
        {
            "buffer" : 0,
            "byteLength" : 44436,
            "byteOffset" : 377984
        },
        {
            "buffer" : 0,
            "byteLength" : 1428,
            "byteOffset" : 422420
        },
        {
            "buffer" : 0,
            "byteLength" : 1428,
            "byteOffset" : 423848
        },
        {
            "buffer" : 0,
            "byteLength" : 952,
            "byteOffset" : 425276
        },
        {
            "buffer" : 0,
            "byteLength" : 1428,
            "byteOffset" : 426228
        },
        {
            "buffer" : 0,
            "byteLength" : 1428,
            "byteOffset" : 427656
        },
        {
            "buffer" : 0,
            "byteLength" : 952,
            "byteOffset" : 429084
        },
        {
            "buffer" : 0,
            "byteLength" : 1428,
            "byteOffset" : 430036
        },
        {
            "buffer" : 0,
            "byteLength" : 1428,
            "byteOffset" : 431464
        },
        {
            "buffer" : 0,
            "byteLength" : 952,
            "byteOffset" : 432892
        },
        {
            "buffer" : 0,
            "byteLength" : 1428,
            "byteOffset" : 433844
        },
        {
            "buffer" : 0,
            "byteLength" : 1428,
            "byteOffset" : 435272
        },
        {
            "buffer" : 0,
            "byteLength" : 952,
            "byteOffset" : 436700
        },
        {
            "buffer" : 0,
            "byteLength" : 2640,
            "byteOffset" : 437652
        },
        {
            "buffer" : 0,
            "byteLength" : 2640,
            "byteOffset" : 440292
        },
        {
            "buffer" : 0,
            "byteLength" : 1760,
            "byteOffset" : 442932
        },
        {
            "buffer" : 0,
            "byteLength" : 1308,
            "byteOffset" : 444692
        },
        {
            "buffer" : 0,
            "byteLength" : 528,
            "byteOffset" : 446000
        },
        {
            "buffer" : 0,
            "byteLength" : 528,
            "byteOffset" : 446528
        },
        {
            "buffer" : 0,
            "byteLength" : 352,
            "byteOffset" : 447056
        },
        {
            "buffer" : 0,
            "byteLength" : 252,
            "byteOffset" : 447408
        },
        {
            "buffer" : 0,
            "byteLength" : 184602,
            "byteOffset" : 447660
        }
    ],
    "samplers" : [
        {
            "magFilter" : 9729,
            "minFilter" : 9987
        }
    ],
    "buffers" : [
        {
            "byteLength" : 632264,
            "uri" : "data:application/octet-stream;base64,"
        }
    ]
}
