<?xml version="1.0" encoding="UTF-8" standalone="no"?>
<!-- Created with Inkscape (http://www.inkscape.org/) -->

<svg
   width="212.5mm"
   height="212.5mm"
   viewBox="0 0 212.5 212.5"
   version="1.1"
   id="svg6014"
   inkscape:version="1.2.1 (9c6d41e410, 2022-07-14)"
   sodipodi:docname="KMGreen.svg"
   xmlns:inkscape="http://www.inkscape.org/namespaces/inkscape"
   xmlns:sodipodi="http://sodipodi.sourceforge.net/DTD/sodipodi-0.dtd"
   xmlns="http://www.w3.org/2000/svg"
   xmlns:svg="http://www.w3.org/2000/svg">
  <sodipodi:namedview
     id="namedview6016"
     pagecolor="#ffffff"
     bordercolor="#000000"
     borderopacity="0.25"
     inkscape:showpageshadow="2"
     inkscape:pageopacity="0.0"
     inkscape:pagecheckerboard="0"
     inkscape:deskcolor="#d1d1d1"
     inkscape:document-units="mm"
     showgrid="false"
     inkscape:zoom="0.72515432"
     inkscape:cx="373.02405"
     inkscape:cy="385.4352"
     inkscape:window-width="1920"
     inkscape:window-height="1001"
     inkscape:window-x="-9"
     inkscape:window-y="-9"
     inkscape:window-maximized="1"
     inkscape:current-layer="layer1" />
  <defs
     id="defs6011" />
  <g
     inkscape:label="Layer 1"
     inkscape:groupmode="layer"
     id="layer1">
    <text
       xml:space="preserve"
       style="font-weight:bold;font-size:104.732px;font-family:'Leelawadee UI';-inkscape-font-specification:'Leelawadee UI Bold';text-align:center;text-anchor:middle;fill:#000000;fill-opacity:1;stroke:none;stroke-width:3.27289;stroke-linecap:round"
       x="32.779301"
       y="137.6324"
       id="text240"
       transform="scale(0.98608758,1.0141087)"><tspan
         sodipodi:role="line"
         id="tspan238"
         style="font-style:normal;font-variant:normal;font-weight:normal;font-stretch:normal;font-family:'Eras Demi ITC';-inkscape-font-specification:'Eras Demi ITC';fill:#000000;fill-opacity:1;stroke:none;stroke-width:3.27289"
         x="32.779301"
         y="137.6324">K</tspan></text>
    <text
       xml:space="preserve"
       style="font-weight:bold;font-size:104.732px;font-family:'Leelawadee UI';-inkscape-font-specification:'Leelawadee UI Bold';text-align:center;text-anchor:middle;fill:#000000;fill-opacity:1;stroke:none;stroke-width:3.27289;stroke-linecap:round"
       x="109.30885"
       y="137.6324"
       id="text1264"
       transform="scale(0.98608758,1.0141087)"><tspan
         sodipodi:role="line"
         id="tspan1262"
         style="font-style:normal;font-variant:normal;font-weight:bold;font-stretch:normal;font-family:'Eras Demi ITC';-inkscape-font-specification:'Eras Demi ITC Bold';stroke:none;stroke-width:3.27289"
         x="109.30885"
         y="137.6324">M</tspan></text>
    <text
       xml:space="preserve"
       style="font-weight:bold;font-size:104.732px;font-family:'Leelawadee UI';-inkscape-font-specification:'Leelawadee UI Bold';text-align:center;text-anchor:middle;fill:#000000;fill-opacity:1;stroke:none;stroke-width:3.27289;stroke-linecap:round"
       x="-183.69582"
       y="137.6324"
       id="text1575"
       transform="scale(-0.98608758,1.0141087)"><tspan
         sodipodi:role="line"
         id="tspan1573"
         style="font-style:normal;font-variant:normal;font-weight:normal;font-stretch:normal;font-family:'Eras Demi ITC';-inkscape-font-specification:'Eras Demi ITC';fill:#000000;fill-opacity:1;stroke:none;stroke-width:3.27289"
         x="-183.69582"
         y="137.6324">K</tspan></text>
    <path
       style="fill:#00ae69;fill-opacity:1;stroke:none;stroke-width:0.511758;stroke-linecap:round"
       d="M 45.381551,136.33882 C 43.344009,133.06151 27.77208,110.06105 24.199044,105.05125 l -2.072071,-2.90527 5.708694,-7.214751 c 6.538837,-8.26394 15.612479,-20.10131 18.111068,-23.627473 l 1.700799,-2.400279 h 8.678489 8.678492 L 53.585841,82.721272 c -6.280269,7.599795 -12.364656,15.01239 -13.520859,16.47247 l -2.102185,2.654698 1.455014,2.14583 c 1.744141,2.57222 10.036803,13.79855 19.450416,26.33132 l 6.861579,9.13512 -9.201629,0.003 -9.201627,0.003 -1.944999,-3.12844 z"
       id="path1796" />
    <path
       style="fill:#00ae69;fill-opacity:1;stroke:none;stroke-width:0.511758;stroke-linecap:round"
       d="m 148.04347,139.19105 c 0,-0.0778 3.21716,-4.42746 7.14919,-9.66597 14.73857,-19.6356 20.10131,-27.00918 20.10131,-27.63873 0,-0.41425 -3.32986,-4.557178 -15.31737,-19.057589 L 148.55346,69.010963 h 8.6729 8.67294 l 1.59575,2.270527 c 2.24715,3.197401 11.70511,15.527191 18.20495,23.73268 3.01952,3.811892 5.49007,7.00972 5.49007,7.10627 0,0.0965 -1.23599,1.94043 -2.74663,4.0975 -5.07335,7.24436 -18.30295,26.80625 -20.27243,29.97574 l -1.9504,3.13877 h -9.08856 c -4.9987,0 -9.08858,-0.0636 -9.08858,-0.14141 z"
       id="path1798" />
    <rect
       style="fill:#00ae69;fill-opacity:1;stroke:none;stroke-width:2.73329;stroke-linecap:round"
       id="rect1854"
       width="12.739219"
       height="115.6515"
       x="141.66385"
       y="-2.8381855"
       transform="matrix(0.93585705,0.35237989,-0.34796029,0.93750927,0,0)" />
  </g>
</svg>
